<svg xmlns="http://www.w3.org/2000/svg" width="21" height="21" viewBox="0 0 21 21"><defs><style>.a{fill:none;}.b{fill:#ffc830;}</style></defs><path class="a" d="M0,0H21V21H0Z"/><path class="b" d="M10.75,6.5V3H2V18.75H19.5V6.5ZM5.5,17H3.75V15.25H5.5Zm0-3.5H3.75V11.75H5.5Zm0-3.5H3.75V8.25H5.5Zm0-3.5H3.75V4.75H5.5ZM9,17H7.25V15.25H9Zm0-3.5H7.25V11.75H9ZM9,10H7.25V8.25H9ZM9,6.5H7.25V4.75H9ZM17.75,17h-7V15.25H12.5V13.5H10.75V11.75H12.5V10H10.75V8.25h7ZM16,10H14.25v1.75H16Zm0,3.5H14.25v1.75H16Z" transform="translate(-0.25 -0.375)"/></svg>