<svg xmlns="http://www.w3.org/2000/svg" width="20" height="20" viewBox="0 0 20 20"><defs><style>.a{fill:none;}.b{fill:#fff;}</style></defs><path class="a" d="M0,0H20V20H0ZM0,0H20V20H0ZM0,0H20V20H0Z"/><path class="b" d="M16.4,0H3.6V1.667H16.4ZM3.6,20H16.4V18.333H3.6ZM16.4,3.333H3.6A1.639,1.639,0,0,0,2,5V15a1.639,1.639,0,0,0,1.6,1.667H16.4A1.639,1.639,0,0,0,18,15V5A1.639,1.639,0,0,0,16.4,3.333ZM10,5.625A1.877,1.877,0,1,1,8.2,7.5,1.841,1.841,0,0,1,10,5.625Zm4,8.542H6v-1.25c0-1.392,2.664-2.083,4-2.083s4,.692,4,2.083Z"/></svg>