<svg xmlns="http://www.w3.org/2000/svg" width="45.871" height="45.871" viewBox="0 0 45.871 45.871"><defs><style>.a{fill:none;}.b{fill:#c2c2c2;}</style></defs><path class="a" d="M0,0H45.871V45.871H0Z"/><path class="b" d="M37.779,2H13.926A3.987,3.987,0,0,0,9.951,5.975V29.828A3.987,3.987,0,0,0,13.926,33.8H37.779a3.987,3.987,0,0,0,3.975-3.975V5.975A3.987,3.987,0,0,0,37.779,2Zm-16.9,14.908A2.978,2.978,0,0,1,17.9,19.89H15.914v3.975H12.933V11.939H17.9a2.978,2.978,0,0,1,2.982,2.982Zm9.939,3.975a2.978,2.978,0,0,1-2.982,2.982H22.871V11.939h4.969a2.978,2.978,0,0,1,2.982,2.982Zm7.951-5.963H35.792v1.988h2.982V19.89H35.792v3.975H32.81V11.939h5.963ZM15.914,16.908H17.9V14.92H15.914ZM5.975,9.951H2V37.779a3.987,3.987,0,0,0,3.975,3.975H33.8V37.779H5.975ZM25.853,20.884h1.988V14.92H25.853Z" transform="translate(1.058 1.058)"/></svg>