<svg xmlns="http://www.w3.org/2000/svg" width="22" height="22" viewBox="0 0 22 22"><defs><style>.a{fill:none;}.b{fill:#fff;}</style></defs><rect class="a" width="22" height="22"/><g transform="translate(2.75 1.833)"><path class="b" d="M15.833,18.035h-11V6.833H11.25V5H4.833A1.839,1.839,0,0,0,3,6.833v11a1.839,1.839,0,0,0,1.833,1.833h11a1.839,1.839,0,0,0,1.833-1.833V11.417H15.833Z" transform="translate(-3 -2.25)"/><path class="b" d="M18.583,2H16.75V4.75H14c.009.009,0,1.833,0,1.833h2.75V9.324c.009.009,1.833,0,1.833,0V6.583h2.75V4.75h-2.75Z" transform="translate(-3.917 -2)"/><rect class="b" width="8" height="2" transform="translate(3.25 6.167)"/><path class="b" d="M7,12v1.833h7.75V12H7Z" transform="translate(-3.75 -2.833)"/><rect class="b" width="8" height="2" transform="translate(3.25 12.167)"/></g></svg>